<svg xmlns="http://www.w3.org/2000/svg" id="Capa_1" enable-background="new 0 0 512 512" viewBox="0 0 512 512"><g><circle cx="256" cy="256" fill="#ff641a" r="256"/><g><path d="m512 256c0-.792-.023-1.579-.03-2.369l-118.55-118.551-.705.705-29.25-29.25-244.929 298.929 104.417 104.417c10.819 1.395 21.848 2.119 33.047 2.119 141.385 0 256-114.615 256-256z" fill="#ef3800"/></g><g><path d="m148.536 405.464h-30v-298.928h30l10 149.464z" fill="#5a5a5a"/><path d="m256 405.464h-107.464v-298.928h107.464l57.464 158.393z" fill="#fff"/><path d="m352.714 135.125h40.75v54.732h-40.75z" fill="#6bc800"/><path d="m352.714 189.857h40.75v54.732h-40.75z" fill="#3a4de1"/><path d="m352.714 244.589h40.75v54.732h-40.75z" fill="#9dcfff"/><path d="m256 106.536h107.464v298.929h-107.464z" fill="#e3eaee"/><g><g fill="#ffd300"><path d="m256 271.849c-13.544 0-25.724-5.944-34.075-15.357h-3.562c-9.747 0-17.649 7.902-17.649 17.649v36.3c0 14.19 24.752 25.693 55.286 25.693l4.855-32.482z"/><path d="m256 254.486c17.851 0 17.851-78.619 0-78.619-17.85 0-32.321 14.471-32.321 32.321v13.978c0 17.85 14.471 32.32 32.321 32.32z"/></g><g fill="#ff9e00"><path d="m293.637 256.492h-3.562c-8.351 9.413-20.531 15.357-34.075 15.357v64.284c30.534 0 55.286-11.503 55.286-25.693v-36.3c0-9.747-7.902-17.648-17.649-17.648z"/><path d="m288.321 222.165v-13.978c0-17.85-14.47-32.321-32.321-32.321v78.619c17.851.001 32.321-14.469 32.321-32.32z"/></g></g></g></g></svg>